<?xml version="1.0" encoding="UTF-8" standalone="no"?>
<!DOCTYPE svg PUBLIC "-//W3C//DTD SVG 1.1//EN" "http://www.w3.org/Graphics/SVG/1.1/DTD/svg11.dtd">
<svg version="1.1" xmlns="http://www.w3.org/2000/svg" xmlns:xlink="http://www.w3.org/1999/xlink" preserveAspectRatio="xMidYMid meet" viewBox="0 0 247 190" width="247" height="190"><defs><path d="M45.63 1.75C42.13 1.75 40.39 2.63 39.51 3.5C38.64 3.5 34.27 2.63 31.65 6.12C25.53 5.25 23.78 9.62 26.4 13.11C24.66 14.86 23.78 16.61 26.4 20.1C25.53 22.73 26.4 24.47 28.15 27.09C28.15 29.72 29.03 31.46 30.77 33.21C30.77 36.71 34.27 39.33 36.02 39.33C36.02 41.95 36.89 43.7 41.26 45.45C42.13 48.07 44.76 48.94 47.38 49.82C38.64 54.18 31.65 61.18 31.65 76.03C31.56 76.29 30.86 78.39 30.77 78.65C21.16 84.77 12.42 103.12 25.53 118.85C25.97 119.99 29.46 129.08 29.9 130.21C31.65 145.94 44.76 152.93 47.38 153.81C52.62 157.3 57.86 160.8 64.85 163.42C71.85 170.41 78.84 173.03 86.7 173.03C94.57 173.03 101.56 170.41 108.55 163.42C115.54 160.8 120.78 157.3 126.03 153.81C128.65 152.93 141.76 145.94 143.5 130.21C143.94 129.08 147.44 119.99 147.87 118.85C160.98 103.12 152.24 84.77 142.63 78.65C142.54 78.39 141.84 76.29 141.76 76.03C141.76 61.18 134.77 54.18 126.03 49.82C128.65 48.94 131.27 48.07 132.14 45.45C136.51 43.7 137.39 41.95 137.39 39.33C139.14 39.33 142.63 36.71 142.63 33.21C144.38 31.46 145.25 29.72 145.25 27.09C147 24.47 147.87 22.73 147 20.1C149.62 16.61 148.75 14.86 147 13.11C149.62 9.62 147.87 5.25 141.76 6.12C139.14 2.63 134.77 3.5 133.89 3.5C133.02 2.63 131.27 1.75 127.77 1.75C126.03 0 123.41 0 120.78 0.88C117.29 -0.87 115.54 0.88 112.92 1.75C109.42 0 108.55 1.75 106.8 2.63C102.43 1.75 101.56 3.5 98.94 5.25C98.76 5.25 97.36 5.25 97.19 5.25C91.07 9.62 87.58 16.61 86.7 20.1C85.83 16.61 82.33 9.62 76.22 5.25C76.04 5.25 74.64 5.25 74.47 5.25C71.85 3.5 70.97 1.75 66.6 2.63C64.85 1.75 63.98 0 60.49 1.75C60.14 1.64 58.39 1.05 55.24 0L52.62 0.88C49.12 0.3 46.79 0.59 45.63 1.75Z" id="f6zbahKhvX"></path><path d="M52.62 48.07C52.88 47.89 54.98 46.49 55.24 46.32C53.49 45.45 49.12 46.32 45.63 44.57C45.89 44.4 47.99 43 48.25 42.82C45.63 41.95 42.13 41.08 40.39 39.33C41.26 39.33 42.13 40.2 43.88 38.45C40.39 37.58 37.76 36.71 36.02 34.09C36.19 34.03 37.07 33.74 38.64 33.21L32.52 28.84L36.02 27.97L30.77 22.73C32.87 22.2 34.04 21.91 34.27 21.85C33.39 20.98 30.77 20.1 29.9 16.61C30.16 16.61 32.26 16.61 32.52 16.61C32.52 13.99 30.77 12.24 29.9 10.49C30.42 10.49 33.05 10.49 37.76 10.49C36.72 8.92 36.13 8.04 36.02 7.87C38.64 7 42.13 7.87 44.76 8.74C45.63 7.87 44.76 7 43.01 6.12C43.79 6.3 50.09 7.69 50.87 7.87C51.75 7 50 6.12 49.12 4.37C53.49 5.25 55.24 7 56.99 7.87C57.86 6.12 56.99 5.25 56.12 4.37C56.73 4.81 61.62 8.31 62.23 8.74C63.11 7.87 63.98 7 63.11 5.25C63.54 5.68 67.04 9.18 67.48 9.62C69.22 8.74 68.35 7.87 68.35 7C68.76 7.34 70.8 9.09 74.47 12.24C74.99 10.67 75.28 9.79 75.34 9.62C80.58 14.86 88.45 28.84 77.09 34.09C67.48 26.22 56.12 20.1 43.01 15.73C59.61 24.47 69.22 31.46 74.47 37.58C71.85 48.07 57.86 48.07 52.62 48.07Z" id="b1rqkk8d2H"></path><path d="M120.78 48.07C120.61 47.89 119.21 46.49 119.04 46.32C119.91 45.45 124.28 46.32 127.77 44.57C127.51 44.4 125.42 43 125.15 42.82C128.65 41.95 132.14 41.08 133.89 39.33C133.02 39.33 131.27 40.2 130.4 38.45C133.02 37.58 135.64 36.71 138.26 34.09C138.03 34.03 136.86 33.74 134.77 33.21L140.88 28.84L137.39 27.97L143.5 22.73C140.88 22.2 139.43 21.91 139.14 21.85C140.01 20.98 142.63 20.1 144.38 16.61C144.15 16.61 142.98 16.61 140.88 16.61L144.38 10.49L135.64 10.49C137.21 8.92 138.09 8.04 138.26 7.87C134.77 7 131.27 7.87 129.52 8.74C127.77 7.87 129.52 7 130.4 6.12C129.7 6.3 124.1 7.69 123.41 7.87C121.66 7 124.28 6.12 125.15 4.37C120.78 5.25 119.04 7 117.29 7.87C115.54 6.12 117.29 5.25 118.16 4.37C114.67 5.25 112.92 7 111.17 8.74C111.17 8.51 111.17 7.34 111.17 5.25C108.02 7.87 106.28 9.33 105.93 9.62C104.18 8.74 105.05 7.87 105.05 7C104.7 7.34 102.96 9.09 99.81 12.24C99.29 10.67 98.99 9.79 98.94 9.62C92.82 14.86 84.95 28.84 96.31 34.09C105.93 26.22 118.16 20.1 130.4 15.73C113.79 24.47 104.18 31.46 98.94 37.58C101.56 48.07 115.54 48.07 120.78 48.07Z" id="b1F1daYhcS"></path><path d="M67.48 125.84C67.48 115.36 76.22 107.49 86.7 107.49C98.06 107.49 106.8 115.36 106.8 125.84C106.8 135.46 98.06 143.32 86.7 143.32C76.22 143.32 67.48 135.46 67.48 125.84Z" id="acEmLgZFF"></path><path d="M52.67 108.37C41.31 103.12 36.94 90.89 43.93 81.28C50.05 71.66 64.03 68.17 75.39 73.41C86.75 78.65 91.12 90.89 85.01 100.5C78.89 110.11 64.03 113.61 52.67 108.37Z" id="b1bzL7GodV"></path><path d="M119.91 106.62C131.27 101.37 135.64 89.14 129.52 79.53C123.41 69.91 108.55 66.42 97.19 71.66C85.83 77.78 81.46 89.14 88.45 98.75C94.57 108.37 108.55 111.86 119.91 106.62Z" id="ak7Qw7kOg"></path><path d="M35.14 82.15C43.88 80.4 37.76 118.85 30.77 115.36C22.91 109.24 20.29 90.89 35.14 82.15Z" id="f9vnxfEyl"></path><path d="M136.61 82.22C127.87 79.6 133.99 118.05 140.98 115.43C148.84 109.31 151.46 90.08 136.61 82.22Z" id="a8eZSzxNGN"></path><path d="M106.5 52.65C121.36 50.03 134.47 58.77 133.59 75.38C133.59 81.49 101.26 53.53 106.5 52.65Z" id="c3fsOK1U30"></path><path d="M64.85 52.44C50 49.82 36.89 59.43 37.76 75.16C37.76 82.15 70.1 53.31 64.85 52.44Z" id="ap64Flziu"></path><path d="M86.7 69.91C97.19 69.91 104.18 65.55 105.05 60.3C105.05 55.06 94.57 48.94 86.7 48.94C77.96 48.07 69.22 55.06 69.22 59.43C69.22 64.67 76.22 69.04 86.7 69.91Z" id="a2ra6azPhM"></path><path d="M86.7 167.79C77.09 168.66 67.48 159.93 67.48 157.3C67.48 152.93 79.71 149.44 87.58 149.44C95.44 149.44 105.93 152.06 105.93 155.56C105.93 159.93 96.31 167.79 86.7 167.79Z" id="b5eZr0IdIA"></path><path d="M38.64 139.83C33.39 130.21 34.27 120.6 37.76 117.98C43.01 114.48 51.75 118.85 57.86 126.72C63.98 133.71 66.6 145.07 61.36 148.56C56.99 151.19 46.5 150.31 38.64 139.83Z" id="a316TnsiCK"></path><path d="M134.77 139.07C140.88 131.2 138.26 118.09 134.77 114.6C129.52 111.1 122.53 115.47 115.54 124.21C109.42 131.2 105.93 144.31 110.3 147.8C114.67 151.3 126.03 151.3 134.77 139.07Z" id="b1V9ByORk"></path><path d="M84.41 186.25C-6.59 186.25 4.41 106.25 4.41 106.25C19.61 106.25 141.21 106.25 156.41 106.25C182.41 106.25 190.41 98.25 190.41 98.25C190.41 98.25 176.41 79.25 193.41 56.25C212.41 67.25 211.41 84.25 211.41 84.25C211.41 84.25 230.41 77.25 242.41 88.25C236.41 110.25 206.41 109.25 206.41 109.25C206.41 109.25 178.41 186.25 84.41 186.25" id="a7yxHz6ts"></path><mask id="maskd645eKUxnP" x="-4.01" y="48.25" width="254.42" height="146" maskUnits="userSpaceOnUse"><rect x="-4.01" y="48.25" width="254.42" height="146" fill="white"></rect><use xlink:href="#a7yxHz6ts" opacity="1" fill="black"></use></mask><path d="M206.07 113.14L205.86 110.71L206.42 109.26L206.92 109.7L207.39 111.01L206.47 113.66L206.07 113.14Z" id="dicaXU8WG"></path></defs><g><g><g transform="matrix(1 0 0 1 4 0)" vector-effect="non-scaling-stroke"><use xlink:href="#f6zbahKhvX" opacity="1" fill="#08435a" fill-opacity="1"></use><g><use xlink:href="#f6zbahKhvX" opacity="1" fill-opacity="0" stroke="#000000" stroke-width="0" stroke-opacity="0"></use></g></g><g><g transform="matrix(1 0 0 1 4 0)" vector-effect="non-scaling-stroke"><use xlink:href="#b1rqkk8d2H" opacity="1" fill="#009ddb" fill-opacity="1"></use><g><use xlink:href="#b1rqkk8d2H" opacity="1" fill-opacity="0" stroke="#000000" stroke-width="1" stroke-opacity="0"></use></g></g><g transform="matrix(1 0 0 1 4 0)" vector-effect="non-scaling-stroke"><use xlink:href="#b1F1daYhcS" opacity="1" fill="#009ddb" fill-opacity="1"></use><g><use xlink:href="#b1F1daYhcS" opacity="1" fill-opacity="0" stroke="#000000" stroke-width="1" stroke-opacity="0"></use></g></g><g transform="matrix(1 0 0 1 4 0)" vector-effect="non-scaling-stroke"><use xlink:href="#acEmLgZFF" opacity="1" fill="#009ddb" fill-opacity="1"></use><g><use xlink:href="#acEmLgZFF" opacity="1" fill-opacity="0" stroke="#000000" stroke-width="1" stroke-opacity="0"></use></g></g><g transform="matrix(1 0 0 1 4 0)" vector-effect="non-scaling-stroke"><use xlink:href="#b1bzL7GodV" opacity="1" fill="#009ddb" fill-opacity="1"></use><g><use xlink:href="#b1bzL7GodV" opacity="1" fill-opacity="0" stroke="#000000" stroke-width="1" stroke-opacity="0"></use></g></g><g transform="matrix(1 0 0 1 4 0)" vector-effect="non-scaling-stroke"><use xlink:href="#ak7Qw7kOg" opacity="1" fill="#009ddb" fill-opacity="1"></use><g><use xlink:href="#ak7Qw7kOg" opacity="1" fill-opacity="0" stroke="#000000" stroke-width="1" stroke-opacity="0"></use></g></g><g transform="matrix(1 0 0 1 4 0)" vector-effect="non-scaling-stroke"><use xlink:href="#f9vnxfEyl" opacity="1" fill="#009ddb" fill-opacity="1"></use><g><use xlink:href="#f9vnxfEyl" opacity="1" fill-opacity="0" stroke="#000000" stroke-width="1" stroke-opacity="0"></use></g></g><g transform="matrix(1 0 0 1 4 0)" vector-effect="non-scaling-stroke"><use xlink:href="#a8eZSzxNGN" opacity="1" fill="#009ddb" fill-opacity="1"></use><g><use xlink:href="#a8eZSzxNGN" opacity="1" fill-opacity="0" stroke="#000000" stroke-width="1" stroke-opacity="0"></use></g></g><g transform="matrix(1 0 0 1 4 0)" vector-effect="non-scaling-stroke"><use xlink:href="#c3fsOK1U30" opacity="1" fill="#009ddb" fill-opacity="1"></use><g><use xlink:href="#c3fsOK1U30" opacity="1" fill-opacity="0" stroke="#000000" stroke-width="1" stroke-opacity="0"></use></g></g><g transform="matrix(1 0 0 1 4 0)" vector-effect="non-scaling-stroke"><use xlink:href="#ap64Flziu" opacity="1" fill="#009ddb" fill-opacity="1"></use><g><use xlink:href="#ap64Flziu" opacity="1" fill-opacity="0" stroke="#000000" stroke-width="1" stroke-opacity="0"></use></g></g><g transform="matrix(1 0 0 1 4 0)" vector-effect="non-scaling-stroke"><use xlink:href="#a2ra6azPhM" opacity="1" fill="#009ddb" fill-opacity="1"></use><g><use xlink:href="#a2ra6azPhM" opacity="1" fill-opacity="0" stroke="#000000" stroke-width="1" stroke-opacity="0"></use></g></g><g transform="matrix(1 0 0 1 4 0)" vector-effect="non-scaling-stroke"><use xlink:href="#b5eZr0IdIA" opacity="1" fill="#009ddb" fill-opacity="1"></use><g><use xlink:href="#b5eZr0IdIA" opacity="1" fill-opacity="0" stroke="#000000" stroke-width="1" stroke-opacity="0"></use></g></g><g transform="matrix(1 0 0 1 4 0)" vector-effect="non-scaling-stroke"><use xlink:href="#a316TnsiCK" opacity="1" fill="#009ddb" fill-opacity="1"></use><g><use xlink:href="#a316TnsiCK" opacity="1" fill-opacity="0" stroke="#000000" stroke-width="1" stroke-opacity="0"></use></g></g><g transform="matrix(1 0 0 1 4 0)" vector-effect="non-scaling-stroke"><use xlink:href="#b1V9ByORk" opacity="1" fill="#009ddb" fill-opacity="1"></use><g><use xlink:href="#b1V9ByORk" opacity="1" fill-opacity="0" stroke="#000000" stroke-width="1" stroke-opacity="0"></use></g></g></g><g><use xlink:href="#a7yxHz6ts" opacity="1" fill="#009ddb" fill-opacity="1"></use><g mask="url(#maskd645eKUxnP)"><use xlink:href="#a7yxHz6ts" opacity="1" fill-opacity="0" stroke="#08435a" stroke-width="8" stroke-opacity="1"></use></g></g><g><use xlink:href="#dicaXU8WG" opacity="1" fill="#08435a" fill-opacity="1"></use><g><use xlink:href="#dicaXU8WG" opacity="1" fill-opacity="0" stroke="#08435a" stroke-width="2" stroke-opacity="0"></use></g></g></g></g></svg>